<?xml version="1.0" encoding="UTF-8" standalone="no"?>
<svg
   xmlns:dc="http://purl.org/dc/elements/1.1/"
   xmlns:cc="http://creativecommons.org/ns#"
   xmlns:rdf="http://www.w3.org/1999/02/22-rdf-syntax-ns#"
   xmlns:svg="http://www.w3.org/2000/svg"
   xmlns="http://www.w3.org/2000/svg"
   xmlns:sodipodi="http://sodipodi.sourceforge.net/DTD/sodipodi-0.dtd"
   xmlns:inkscape="http://www.inkscape.org/namespaces/inkscape"
   inkscape:version="1.0 (4035a4fb49, 2020-05-01)"
   sodipodi:docname="stripes.svg"
   id="svg8"
   version="1.1"
   viewBox="0 0 105.83333 105.83333"
   height="400"
   width="400">
  <defs
     id="defs2" />
  <sodipodi:namedview
     inkscape:window-maximized="1"
     inkscape:window-y="-8"
     inkscape:window-x="-8"
     inkscape:window-height="1027"
     inkscape:window-width="1920"
     units="px"
     inkscape:snap-page="true"
     showgrid="false"
     inkscape:document-rotation="0"
     inkscape:current-layer="layer1"
     inkscape:document-units="px"
     inkscape:cy="280.29675"
     inkscape:cx="209.74862"
     inkscape:zoom="1"
     inkscape:pageshadow="2"
     inkscape:pageopacity="0.0"
     borderopacity="1.0"
     bordercolor="#666666"
     pagecolor="#ffffff"
     id="base" />
  <metadata
     id="metadata5">
    <rdf:RDF>
      <cc:Work
         rdf:about="">
        <dc:format>image/svg+xml</dc:format>
        <dc:type
           rdf:resource="http://purl.org/dc/dcmitype/StillImage" />
        <dc:title></dc:title>
      </cc:Work>
    </rdf:RDF>
  </metadata>
  <g
     id="layer1"
     inkscape:groupmode="layer"
     inkscape:label="Layer 1">
    <rect
       inkscape:transform-center-y="-52.651124"
       inkscape:transform-center-x="52.917055"
       transform="matrix(0.70710678,-0.70710678,0,-1,0,0)"
       y="-106.36289"
       x="0"
       height="3"
       width="149.67094"
       id="rect833"
       style="fill:#000000;stroke-width:1.10856" />
    <rect
       inkscape:transform-center-y="42.598878"
       inkscape:transform-center-x="52.917053"
       style="fill:#000000;stroke-width:1.10856"
       id="rect839"
       width="149.67093"
       height="3"
       x="1.0789593e-05"
       y="-201.6129"
       transform="matrix(0.70710678,-0.70710678,0,-1,0,0)" />
    <rect
       inkscape:transform-center-y="32.015534"
       inkscape:transform-center-x="52.917053"
       transform="matrix(0.70710678,-0.70710678,0,-1,0,0)"
       y="-191.02956"
       x="1.0789593e-05"
       height="3"
       width="149.67093"
       id="rect841"
       style="fill:#000000;stroke-width:1.10856" />
    <rect
       inkscape:transform-center-y="21.432206"
       inkscape:transform-center-x="52.917053"
       style="fill:#000000;stroke-width:1.10856"
       id="rect843"
       width="149.67093"
       height="3"
       x="1.0789593e-05"
       y="-180.44623"
       transform="matrix(0.70710678,-0.70710678,0,-1,0,0)" />
    <rect
       inkscape:transform-center-y="10.848878"
       inkscape:transform-center-x="52.917053"
       transform="matrix(0.70710678,-0.70710678,0,-1,0,0)"
       y="-169.8629"
       x="1.0789593e-05"
       height="3"
       width="149.67093"
       id="rect845"
       style="fill:#000000;stroke-width:1.10856" />
    <rect
       inkscape:transform-center-y="0.26553521"
       inkscape:transform-center-x="52.917053"
       style="fill:#000000;stroke-width:1.10856"
       id="rect847"
       width="149.67093"
       height="3"
       x="1.0789593e-05"
       y="-159.27956"
       transform="matrix(0.70710678,-0.70710678,0,-1,0,0)" />
    <rect
       inkscape:transform-center-y="-10.317793"
       inkscape:transform-center-x="52.917053"
       transform="matrix(0.70710678,-0.70710678,0,-1,0,0)"
       y="-148.69623"
       x="1.0789593e-05"
       height="3"
       width="149.67093"
       id="rect849"
       style="fill:#000000;stroke-width:1.10856" />
    <rect
       inkscape:transform-center-y="-20.901137"
       inkscape:transform-center-x="52.917053"
       style="fill:#000000;stroke-width:1.10856"
       id="rect851"
       width="149.67093"
       height="3"
       x="1.0789593e-05"
       y="-138.11288"
       transform="matrix(0.70710678,-0.70710678,0,-1,0,0)" />
    <rect
       inkscape:transform-center-y="-31.484465"
       inkscape:transform-center-x="52.917053"
       transform="matrix(0.70710678,-0.70710678,0,-1,0,0)"
       y="-127.52956"
       x="1.0789593e-05"
       height="3"
       width="149.67093"
       id="rect853"
       style="fill:#000000;stroke-width:1.10856" />
    <rect
       inkscape:transform-center-y="-42.067793"
       inkscape:transform-center-x="52.917053"
       style="fill:#000000;stroke-width:1.10856"
       id="rect855"
       width="149.67093"
       height="3"
       x="1.0789593e-05"
       y="-116.94623"
       transform="matrix(0.70710678,-0.70710678,0,-1,0,0)" />
    <rect
       inkscape:transform-center-y="-158.48445"
       inkscape:transform-center-x="52.917055"
       style="fill:#000000;stroke-width:1.10856"
       id="rect921"
       width="149.67094"
       height="3"
       x="0"
       y="-0.52956367"
       transform="matrix(0.70710678,-0.70710678,0,-1,0,0)" />
    <rect
       inkscape:transform-center-y="-63.23446"
       inkscape:transform-center-x="52.917053"
       transform="matrix(0.70710678,-0.70710678,0,-1,0,0)"
       y="-95.779564"
       x="1.0789593e-05"
       height="3"
       width="149.67093"
       id="rect923"
       style="fill:#000000;stroke-width:1.10856" />
    <rect
       inkscape:transform-center-y="-73.817791"
       inkscape:transform-center-x="52.917053"
       style="fill:#000000;stroke-width:1.10856"
       id="rect925"
       width="149.67093"
       height="3"
       x="1.0789593e-05"
       y="-85.196228"
       transform="matrix(0.70710678,-0.70710678,0,-1,0,0)" />
    <rect
       inkscape:transform-center-y="-84.401121"
       inkscape:transform-center-x="52.917053"
       transform="matrix(0.70710678,-0.70710678,0,-1,0,0)"
       y="-74.6129"
       x="1.0789593e-05"
       height="3"
       width="149.67093"
       id="rect927"
       style="fill:#000000;stroke-width:1.10856" />
    <rect
       inkscape:transform-center-y="-94.984457"
       inkscape:transform-center-x="52.917053"
       style="fill:#000000;stroke-width:1.10856"
       id="rect929"
       width="149.67093"
       height="3"
       x="1.0789593e-05"
       y="-64.029564"
       transform="matrix(0.70710678,-0.70710678,0,-1,0,0)" />
    <rect
       inkscape:transform-center-y="-105.5678"
       inkscape:transform-center-x="52.917053"
       transform="matrix(0.70710678,-0.70710678,0,-1,0,0)"
       y="-53.446224"
       x="1.0789593e-05"
       height="3"
       width="149.67093"
       id="rect931"
       style="fill:#000000;stroke-width:1.10856" />
    <rect
       inkscape:transform-center-y="-116.15113"
       inkscape:transform-center-x="52.917053"
       style="fill:#000000;stroke-width:1.10856"
       id="rect933"
       width="149.67093"
       height="3"
       x="1.0789593e-05"
       y="-42.862892"
       transform="matrix(0.70710678,-0.70710678,0,-1,0,0)" />
    <rect
       inkscape:transform-center-y="-126.73446"
       inkscape:transform-center-x="52.917053"
       transform="matrix(0.70710678,-0.70710678,0,-1,0,0)"
       y="-32.279564"
       x="1.0789593e-05"
       height="3"
       width="149.67093"
       id="rect935"
       style="fill:#000000;stroke-width:1.10856" />
    <rect
       inkscape:transform-center-y="-137.3178"
       inkscape:transform-center-x="52.917053"
       style="fill:#000000;stroke-width:1.10856"
       id="rect937"
       width="149.67093"
       height="3"
       x="1.0789593e-05"
       y="-21.696228"
       transform="matrix(0.70710678,-0.70710678,0,-1,0,0)" />
    <rect
       inkscape:transform-center-y="-147.90113"
       inkscape:transform-center-x="52.917053"
       transform="matrix(0.70710678,-0.70710678,0,-1,0,0)"
       y="-11.112892"
       x="1.0789593e-05"
       height="3"
       width="149.67093"
       id="rect939"
       style="fill:#000000;stroke-width:1.10856" />
  </g>
</svg>
